<?xml version="1.0" encoding="UTF-8" standalone="no"?>
<!DOCTYPE svg PUBLIC "-//W3C//DTD SVG 1.1//EN"
 "http://www.w3.org/Graphics/SVG/1.1/DTD/svg11.dtd">
<!-- Generated by graphviz version 2.36.0 (20140111.2315)
 -->
<!-- Title: models_diagram Pages: 1 -->
<svg width="375pt" height="1042pt"
 viewBox="0.00 0.00 374.59 1042.00" xmlns="http://www.w3.org/2000/svg" xmlns:xlink="http://www.w3.org/1999/xlink">
<g id="graph0" class="graph" transform="scale(1 1) rotate(0) translate(4 1038)">
<title>models_diagram</title>
<polygon fill="none" stroke="none" points="-4,4 -4,-1038 370.595,-1038 370.595,4 -4,4"/>
<!-- Flag -->
<g id="node1" class="node"><title>Flag</title>
<path fill="none" stroke="black" d="M106.095,-1C106.095,-1 213.095,-1 213.095,-1 219.095,-1 225.095,-7 225.095,-13 225.095,-13 225.095,-125 225.095,-125 225.095,-131 219.095,-137 213.095,-137 213.095,-137 106.095,-137 106.095,-137 100.095,-137 94.0945,-131 94.0945,-125 94.0945,-125 94.0945,-13 94.0945,-13 94.0945,-7 100.095,-1 106.095,-1"/>
<text text-anchor="middle" x="159.595" y="-121.8" font-family="Times,serif" font-size="14.00">Flag</text>
<polyline fill="none" stroke="black" points="94.0945,-114 225.095,-114 "/>
<text text-anchor="start" x="102.095" y="-98.8" font-family="Times,serif" font-size="14.00">id :INTEGER</text>
<text text-anchor="start" x="102.095" y="-83.8" font-family="Times,serif" font-size="14.00">review_id :integer</text>
<text text-anchor="start" x="102.095" y="-68.8" font-family="Times,serif" font-size="14.00">user_id :integer</text>
<text text-anchor="start" x="102.095" y="-53.8" font-family="Times,serif" font-size="14.00">reason :varchar</text>
<text text-anchor="start" x="102.095" y="-38.8" font-family="Times,serif" font-size="14.00">count :integer</text>
<text text-anchor="start" x="102.095" y="-23.8" font-family="Times,serif" font-size="14.00">created_at :datetime</text>
<text text-anchor="start" x="102.095" y="-8.8" font-family="Times,serif" font-size="14.00">updated_at :datetime</text>
</g>
<!-- User -->
<g id="node2" class="node"><title>User</title>
<path fill="none" stroke="black" d="M63.5945,-642.5C63.5945,-642.5 239.595,-642.5 239.595,-642.5 245.595,-642.5 251.595,-648.5 251.595,-654.5 251.595,-654.5 251.595,-1021.5 251.595,-1021.5 251.595,-1027.5 245.595,-1033.5 239.595,-1033.5 239.595,-1033.5 63.5945,-1033.5 63.5945,-1033.5 57.5945,-1033.5 51.5945,-1027.5 51.5945,-1021.5 51.5945,-1021.5 51.5945,-654.5 51.5945,-654.5 51.5945,-648.5 57.5945,-642.5 63.5945,-642.5"/>
<text text-anchor="middle" x="151.595" y="-1018.3" font-family="Times,serif" font-size="14.00">User</text>
<polyline fill="none" stroke="black" points="51.5945,-1010.5 251.595,-1010.5 "/>
<text text-anchor="start" x="59.5945" y="-995.3" font-family="Times,serif" font-size="14.00">id :INTEGER</text>
<text text-anchor="start" x="59.5945" y="-980.3" font-family="Times,serif" font-size="14.00">name :varchar</text>
<text text-anchor="start" x="59.5945" y="-965.3" font-family="Times,serif" font-size="14.00">email :varchar</text>
<text text-anchor="start" x="59.5945" y="-950.3" font-family="Times,serif" font-size="14.00">encrypted_password :varchar</text>
<text text-anchor="start" x="59.5945" y="-935.3" font-family="Times,serif" font-size="14.00">reset_password_token :varchar</text>
<text text-anchor="start" x="59.5945" y="-920.3" font-family="Times,serif" font-size="14.00">reset_password_sent_at :datetime</text>
<text text-anchor="start" x="59.5945" y="-905.3" font-family="Times,serif" font-size="14.00">remember_created_at :datetime</text>
<text text-anchor="start" x="59.5945" y="-890.3" font-family="Times,serif" font-size="14.00">sign_in_count :integer</text>
<text text-anchor="start" x="59.5945" y="-875.3" font-family="Times,serif" font-size="14.00">current_sign_in_at :datetime</text>
<text text-anchor="start" x="59.5945" y="-860.3" font-family="Times,serif" font-size="14.00">last_sign_in_at :datetime</text>
<text text-anchor="start" x="59.5945" y="-845.3" font-family="Times,serif" font-size="14.00">current_sign_in_ip :varchar</text>
<text text-anchor="start" x="59.5945" y="-830.3" font-family="Times,serif" font-size="14.00">last_sign_in_ip :varchar</text>
<text text-anchor="start" x="59.5945" y="-815.3" font-family="Times,serif" font-size="14.00">created_at :datetime</text>
<text text-anchor="start" x="59.5945" y="-800.3" font-family="Times,serif" font-size="14.00">updated_at :datetime</text>
<text text-anchor="start" x="59.5945" y="-785.3" font-family="Times,serif" font-size="14.00">role :varchar</text>
<text text-anchor="start" x="59.5945" y="-770.3" font-family="Times,serif" font-size="14.00">latitude :float</text>
<text text-anchor="start" x="59.5945" y="-755.3" font-family="Times,serif" font-size="14.00">longitude :float</text>
<text text-anchor="start" x="59.5945" y="-740.3" font-family="Times,serif" font-size="14.00">ip_address :varchar</text>
<text text-anchor="start" x="59.5945" y="-725.3" font-family="Times,serif" font-size="14.00">image_file_name :varchar</text>
<text text-anchor="start" x="59.5945" y="-710.3" font-family="Times,serif" font-size="14.00">image_content_type :varchar</text>
<text text-anchor="start" x="59.5945" y="-695.3" font-family="Times,serif" font-size="14.00">image_file_size :integer</text>
<text text-anchor="start" x="59.5945" y="-680.3" font-family="Times,serif" font-size="14.00">image_updated_at :datetime</text>
<text text-anchor="start" x="59.5945" y="-665.3" font-family="Times,serif" font-size="14.00">provider :varchar</text>
<text text-anchor="start" x="59.5945" y="-650.3" font-family="Times,serif" font-size="14.00">uid :varchar</text>
</g>
<!-- User&#45;&gt;Flag -->
<g id="edge3" class="edge"><title>User&#45;&gt;Flag</title>
<path fill="none" stroke="#928e98" d="M56.5169,-634.618C6.91913,-498.939 -30.7884,-319.215 36.5945,-174 47.4014,-150.71 66.2774,-130.749 86.0448,-114.724"/>
<ellipse fill="none" stroke="#928e98" cx="57.9559" cy="-638.513" rx="4.00001" ry="4.00001"/>
<polygon fill="#928e98" stroke="#928e98" points="86.066,-114.708 96.717,-112.099 90.0065,-111.63 93.947,-108.552 93.947,-108.552 93.947,-108.552 90.0065,-111.63 91.1771,-105.006 86.066,-114.708 86.066,-114.708"/>
</g>
<!-- BathImage -->
<g id="node3" class="node"><title>BathImage</title>
<path fill="none" stroke="black" d="M57.5945,-175C57.5945,-175 205.595,-175 205.595,-175 211.595,-175 217.595,-181 217.595,-187 217.595,-187 217.595,-329 217.595,-329 217.595,-335 211.595,-341 205.595,-341 205.595,-341 57.5945,-341 57.5945,-341 51.5945,-341 45.5945,-335 45.5945,-329 45.5945,-329 45.5945,-187 45.5945,-187 45.5945,-181 51.5945,-175 57.5945,-175"/>
<text text-anchor="middle" x="131.595" y="-325.8" font-family="Times,serif" font-size="14.00">BathImage</text>
<polyline fill="none" stroke="black" points="45.5945,-318 217.595,-318 "/>
<text text-anchor="start" x="53.5945" y="-302.8" font-family="Times,serif" font-size="14.00">id :INTEGER</text>
<text text-anchor="start" x="53.5945" y="-287.8" font-family="Times,serif" font-size="14.00">bath_id :integer</text>
<text text-anchor="start" x="53.5945" y="-272.8" font-family="Times,serif" font-size="14.00">user_id :integer</text>
<text text-anchor="start" x="53.5945" y="-257.8" font-family="Times,serif" font-size="14.00">created_at :datetime</text>
<text text-anchor="start" x="53.5945" y="-242.8" font-family="Times,serif" font-size="14.00">updated_at :datetime</text>
<text text-anchor="start" x="53.5945" y="-227.8" font-family="Times,serif" font-size="14.00">photo_file_name :varchar</text>
<text text-anchor="start" x="53.5945" y="-212.8" font-family="Times,serif" font-size="14.00">photo_content_type :varchar</text>
<text text-anchor="start" x="53.5945" y="-197.8" font-family="Times,serif" font-size="14.00">photo_file_size :integer</text>
<text text-anchor="start" x="53.5945" y="-182.8" font-family="Times,serif" font-size="14.00">photo_updated_at :datetime</text>
</g>
<!-- User&#45;&gt;BathImage -->
<g id="edge4" class="edge"><title>User&#45;&gt;BathImage</title>
<path fill="none" stroke="#5096d3" d="M122.847,-634.394C121.977,-624.807 121.216,-615.305 120.595,-606 113.841,-504.892 115.926,-479.226 120.595,-378 120.994,-369.341 121.556,-360.34 122.217,-351.337"/>
<ellipse fill="none" stroke="#5096d3" cx="123.23" cy="-638.483" rx="4" ry="4"/>
<polygon fill="#5096d3" stroke="#5096d3" points="122.23,-351.162 127.488,-341.538 122.616,-346.176 123.001,-341.191 123.001,-341.191 123.001,-341.191 122.616,-346.176 118.515,-340.844 122.23,-351.162 122.23,-351.162"/>
</g>
<!-- Review -->
<g id="node4" class="node"><title>Review</title>
<path fill="none" stroke="black" d="M248.095,-182.5C248.095,-182.5 355.095,-182.5 355.095,-182.5 361.095,-182.5 367.095,-188.5 367.095,-194.5 367.095,-194.5 367.095,-321.5 367.095,-321.5 367.095,-327.5 361.095,-333.5 355.095,-333.5 355.095,-333.5 248.095,-333.5 248.095,-333.5 242.095,-333.5 236.095,-327.5 236.095,-321.5 236.095,-321.5 236.095,-194.5 236.095,-194.5 236.095,-188.5 242.095,-182.5 248.095,-182.5"/>
<text text-anchor="middle" x="301.595" y="-318.3" font-family="Times,serif" font-size="14.00">Review</text>
<polyline fill="none" stroke="black" points="236.095,-310.5 367.095,-310.5 "/>
<text text-anchor="start" x="244.095" y="-295.3" font-family="Times,serif" font-size="14.00">id :INTEGER</text>
<text text-anchor="start" x="244.095" y="-280.3" font-family="Times,serif" font-size="14.00">post :text</text>
<text text-anchor="start" x="244.095" y="-265.3" font-family="Times,serif" font-size="14.00">rating :integer</text>
<text text-anchor="start" x="244.095" y="-250.3" font-family="Times,serif" font-size="14.00">user_id :integer</text>
<text text-anchor="start" x="244.095" y="-235.3" font-family="Times,serif" font-size="14.00">bath_id :integer</text>
<text text-anchor="start" x="244.095" y="-220.3" font-family="Times,serif" font-size="14.00">created_at :datetime</text>
<text text-anchor="start" x="244.095" y="-205.3" font-family="Times,serif" font-size="14.00">updated_at :datetime</text>
<text text-anchor="start" x="244.095" y="-190.3" font-family="Times,serif" font-size="14.00">flag_count :integer</text>
</g>
<!-- User&#45;&gt;Review -->
<g id="edge2" class="edge"><title>User&#45;&gt;Review</title>
<path fill="none" stroke="#e65e7b" d="M255.208,-673.74C265.708,-651.627 274.938,-628.715 281.595,-606 306.99,-519.347 309.53,-415.434 307.257,-344.047"/>
<ellipse fill="none" stroke="#e65e7b" cx="253.34" cy="-677.606" rx="4.00002" ry="4.00002"/>
<polygon fill="#e65e7b" stroke="#e65e7b" points="307.246,-343.75 311.386,-333.596 307.068,-338.754 306.889,-333.757 306.889,-333.757 306.889,-333.757 307.068,-338.754 302.392,-333.918 307.246,-343.75 307.246,-343.75"/>
</g>
<!-- Bath -->
<g id="node5" class="node"><title>Bath</title>
<path fill="none" stroke="black" d="M142.095,-379C142.095,-379 261.095,-379 261.095,-379 267.095,-379 273.095,-385 273.095,-391 273.095,-391 273.095,-593 273.095,-593 273.095,-599 267.095,-605 261.095,-605 261.095,-605 142.095,-605 142.095,-605 136.095,-605 130.095,-599 130.095,-593 130.095,-593 130.095,-391 130.095,-391 130.095,-385 136.095,-379 142.095,-379"/>
<text text-anchor="middle" x="201.595" y="-589.8" font-family="Times,serif" font-size="14.00">Bath</text>
<polyline fill="none" stroke="black" points="130.095,-582 273.095,-582 "/>
<text text-anchor="start" x="138.095" y="-566.8" font-family="Times,serif" font-size="14.00">id :INTEGER</text>
<text text-anchor="start" x="138.095" y="-551.8" font-family="Times,serif" font-size="14.00">address :varchar</text>
<text text-anchor="start" x="138.095" y="-536.8" font-family="Times,serif" font-size="14.00">city :varchar</text>
<text text-anchor="start" x="138.095" y="-521.8" font-family="Times,serif" font-size="14.00">province :varchar</text>
<text text-anchor="start" x="138.095" y="-506.8" font-family="Times,serif" font-size="14.00">country :varchar</text>
<text text-anchor="start" x="138.095" y="-491.8" font-family="Times,serif" font-size="14.00">hours :time</text>
<text text-anchor="start" x="138.095" y="-476.8" font-family="Times,serif" font-size="14.00">admin_accept :boolean</text>
<text text-anchor="start" x="138.095" y="-461.8" font-family="Times,serif" font-size="14.00">user_id :integer</text>
<text text-anchor="start" x="138.095" y="-446.8" font-family="Times,serif" font-size="14.00">created_at :datetime</text>
<text text-anchor="start" x="138.095" y="-431.8" font-family="Times,serif" font-size="14.00">updated_at :datetime</text>
<text text-anchor="start" x="138.095" y="-416.8" font-family="Times,serif" font-size="14.00">latitude :float</text>
<text text-anchor="start" x="138.095" y="-401.8" font-family="Times,serif" font-size="14.00">longitude :float</text>
<text text-anchor="start" x="138.095" y="-386.8" font-family="Times,serif" font-size="14.00">apartment :varchar</text>
</g>
<!-- User&#45;&gt;Bath -->
<g id="edge1" class="edge"><title>User&#45;&gt;Bath</title>
<path fill="none" stroke="#853e67" d="M181.039,-634.423C181.96,-628.086 182.873,-621.806 183.772,-615.62"/>
<ellipse fill="none" stroke="#853e67" cx="180.457" cy="-638.424" rx="4.00001" ry="4.00001"/>
<polygon fill="#853e67" stroke="#853e67" points="183.833,-615.199 189.725,-605.95 184.552,-610.251 185.271,-605.303 185.271,-605.303 185.271,-605.303 184.552,-610.251 180.818,-604.655 183.833,-615.199 183.833,-615.199"/>
</g>
<!-- Review&#45;&gt;Flag -->
<g id="edge5" class="edge"><title>Review&#45;&gt;Flag</title>
<path fill="none" stroke="#1ec642" d="M239.774,-175.588C232.06,-165.43 224.2,-155.078 216.564,-145.024"/>
<ellipse fill="none" stroke="#1ec642" cx="242.441" cy="-179.101" rx="4.00002" ry="4.00002"/>
<polygon fill="#1ec642" stroke="#1ec642" points="216.544,-144.997 214.081,-134.312 213.52,-141.015 210.497,-137.033 210.497,-137.033 210.497,-137.033 213.52,-141.015 206.913,-139.755 216.544,-144.997 216.544,-144.997"/>
</g>
<!-- Bath&#45;&gt;BathImage -->
<g id="edge7" class="edge"><title>Bath&#45;&gt;BathImage</title>
<path fill="none" stroke="#d36265" d="M165.382,-370.982C163.327,-364.171 161.278,-357.378 159.262,-350.698"/>
<ellipse fill="none" stroke="#d36265" cx="166.567" cy="-374.908" rx="4.00001" ry="4.00001"/>
<polygon fill="#d36265" stroke="#d36265" points="159.225,-350.576 160.645,-339.702 157.781,-345.789 156.337,-341.002 156.337,-341.002 156.337,-341.002 157.781,-345.789 152.028,-342.302 159.225,-350.576 159.225,-350.576"/>
</g>
<!-- Bath&#45;&gt;Review -->
<g id="edge6" class="edge"><title>Bath&#45;&gt;Review</title>
<path fill="none" stroke="#f6d932" d="M253.223,-371.221C257.306,-361.749 261.375,-352.31 265.319,-343.159"/>
<ellipse fill="none" stroke="#f6d932" cx="251.567" cy="-375.064" rx="4.00002" ry="4.00002"/>
<polygon fill="#f6d932" stroke="#f6d932" points="265.422,-342.919 273.513,-335.517 267.402,-338.327 269.381,-333.736 269.381,-333.736 269.381,-333.736 267.402,-338.327 265.248,-331.955 265.422,-342.919 265.422,-342.919"/>
</g>
</g>
</svg>
