<?xml version="1.0" encoding="UTF-8" standalone="no"?>
<!DOCTYPE svg PUBLIC "-//W3C//DTD SVG 1.1//EN"
 "http://www.w3.org/Graphics/SVG/1.1/DTD/svg11.dtd">
<!-- Generated by graphviz version 2.36.0 (20140111.2315)
 -->
<!-- Title: controllers_diagram Pages: 1 -->
<svg width="703pt" height="691pt"
 viewBox="0.00 0.00 703.00 691.00" xmlns="http://www.w3.org/2000/svg" xmlns:xlink="http://www.w3.org/1999/xlink">
<g id="graph0" class="graph" transform="scale(1 1) rotate(0) translate(4 687)">
<title>controllers_diagram</title>
<polygon fill="none" stroke="none" points="-4,4 -4,-687 699,-687 699,4 -4,4"/>
<!-- _diagram_info -->
<g id="node1" class="node"><title>_diagram_info</title>
<text text-anchor="start" x="376" y="-111.6" font-family="Times,serif" font-size="13.00">Controllers diagram</text>
<text text-anchor="start" x="376" y="-97.6" font-family="Times,serif" font-size="13.00">Date: Aug 01 2016 &#45; 02:36</text>
<text text-anchor="start" x="376" y="-83.6" font-family="Times,serif" font-size="13.00">Migration version: 20160730052206</text>
<text text-anchor="start" x="376" y="-69.6" font-family="Times,serif" font-size="13.00">Generated by RailRoady 1.5.1</text>
<text text-anchor="start" x="376" y="-55.6" font-family="Times,serif" font-size="13.00">http://railroady.prestonlee.com</text>
</g>
<!-- HomeController -->
<g id="node2" class="node"><title>HomeController</title>
<path fill="none" stroke="black" d="M220,-0.5C220,-0.5 302,-0.5 302,-0.5 308,-0.5 314,-6.5 314,-12.5 314,-12.5 314,-81.5 314,-81.5 314,-87.5 308,-93.5 302,-93.5 302,-93.5 220,-93.5 220,-93.5 214,-93.5 208,-87.5 208,-81.5 208,-81.5 208,-12.5 208,-12.5 208,-6.5 214,-0.5 220,-0.5"/>
<text text-anchor="middle" x="261" y="-78.3" font-family="Times,serif" font-size="14.00">HomeController</text>
<polyline fill="none" stroke="black" points="208,-70.5 314,-70.5 "/>
<text text-anchor="start" x="216" y="-55.3" font-family="Times,serif" font-size="14.00">index</text>
<polyline fill="none" stroke="black" points="208,-47.5 314,-47.5 "/>
<polyline fill="none" stroke="black" points="208,-23.5 314,-23.5 "/>
<text text-anchor="start" x="216" y="-8.3" font-family="Times,serif" font-size="14.00">_layout</text>
</g>
<!-- NewsController -->
<g id="node3" class="node"><title>NewsController</title>
<path fill="none" stroke="black" d="M604,-304.5C604,-304.5 683,-304.5 683,-304.5 689,-304.5 695,-310.5 695,-316.5 695,-316.5 695,-385.5 695,-385.5 695,-391.5 689,-397.5 683,-397.5 683,-397.5 604,-397.5 604,-397.5 598,-397.5 592,-391.5 592,-385.5 592,-385.5 592,-316.5 592,-316.5 592,-310.5 598,-304.5 604,-304.5"/>
<text text-anchor="middle" x="643.5" y="-382.3" font-family="Times,serif" font-size="14.00">NewsController</text>
<polyline fill="none" stroke="black" points="592,-374.5 695,-374.5 "/>
<text text-anchor="start" x="600" y="-359.3" font-family="Times,serif" font-size="14.00">index</text>
<polyline fill="none" stroke="black" points="592,-351.5 695,-351.5 "/>
<polyline fill="none" stroke="black" points="592,-327.5 695,-327.5 "/>
<text text-anchor="start" x="600" y="-312.3" font-family="Times,serif" font-size="14.00">_layout</text>
</g>
<!-- RegistrationsController -->
<g id="node4" class="node"><title>RegistrationsController</title>
<path fill="none" stroke="black" d="M28,-512.5C28,-512.5 152,-512.5 152,-512.5 158,-512.5 164,-518.5 164,-524.5 164,-524.5 164,-623.5 164,-623.5 164,-629.5 158,-635.5 152,-635.5 152,-635.5 28,-635.5 28,-635.5 22,-635.5 16,-629.5 16,-623.5 16,-623.5 16,-524.5 16,-524.5 16,-518.5 22,-512.5 28,-512.5"/>
<text text-anchor="middle" x="90" y="-620.3" font-family="Times,serif" font-size="14.00">RegistrationsController</text>
<polyline fill="none" stroke="black" points="16,-612.5 164,-612.5 "/>
<text text-anchor="start" x="24" y="-597.3" font-family="Times,serif" font-size="14.00">create</text>
<polyline fill="none" stroke="black" points="16,-589.5 164,-589.5 "/>
<polyline fill="none" stroke="black" points="16,-565.5 164,-565.5 "/>
<text text-anchor="start" x="24" y="-550.3" font-family="Times,serif" font-size="14.00">_layout</text>
<text text-anchor="start" x="24" y="-535.3" font-family="Times,serif" font-size="14.00">account_update_params</text>
<text text-anchor="start" x="24" y="-520.3" font-family="Times,serif" font-size="14.00">sign_up_params</text>
</g>
<!-- RaterController -->
<g id="node5" class="node"><title>RaterController</title>
<path fill="none" stroke="black" d="M604,-432.5C604,-432.5 681,-432.5 681,-432.5 687,-432.5 693,-438.5 693,-444.5 693,-444.5 693,-513.5 693,-513.5 693,-519.5 687,-525.5 681,-525.5 681,-525.5 604,-525.5 604,-525.5 598,-525.5 592,-519.5 592,-513.5 592,-513.5 592,-444.5 592,-444.5 592,-438.5 598,-432.5 604,-432.5"/>
<text text-anchor="middle" x="642.5" y="-510.3" font-family="Times,serif" font-size="14.00">RaterController</text>
<polyline fill="none" stroke="black" points="592,-502.5 693,-502.5 "/>
<text text-anchor="start" x="600" y="-487.3" font-family="Times,serif" font-size="14.00">create</text>
<polyline fill="none" stroke="black" points="592,-479.5 693,-479.5 "/>
<polyline fill="none" stroke="black" points="592,-455.5 693,-455.5 "/>
<text text-anchor="start" x="600" y="-440.3" font-family="Times,serif" font-size="14.00">_layout</text>
</g>
<!-- FlagsController -->
<g id="node6" class="node"><title>FlagsController</title>
<path fill="none" stroke="black" d="M300,-544.5C300,-544.5 377,-544.5 377,-544.5 383,-544.5 389,-550.5 389,-556.5 389,-556.5 389,-670.5 389,-670.5 389,-676.5 383,-682.5 377,-682.5 377,-682.5 300,-682.5 300,-682.5 294,-682.5 288,-676.5 288,-670.5 288,-670.5 288,-556.5 288,-556.5 288,-550.5 294,-544.5 300,-544.5"/>
<text text-anchor="middle" x="338.5" y="-667.3" font-family="Times,serif" font-size="14.00">FlagsController</text>
<polyline fill="none" stroke="black" points="288,-659.5 389,-659.5 "/>
<text text-anchor="start" x="296" y="-644.3" font-family="Times,serif" font-size="14.00">create</text>
<text text-anchor="start" x="296" y="-629.3" font-family="Times,serif" font-size="14.00">new</text>
<polyline fill="none" stroke="black" points="288,-621.5 389,-621.5 "/>
<polyline fill="none" stroke="black" points="288,-597.5 389,-597.5 "/>
<text text-anchor="start" x="296" y="-582.3" font-family="Times,serif" font-size="14.00">_layout</text>
<text text-anchor="start" x="296" y="-567.3" font-family="Times,serif" font-size="14.00">current_review</text>
<text text-anchor="start" x="296" y="-552.3" font-family="Times,serif" font-size="14.00">flag_params</text>
</g>
<!-- BathsController -->
<g id="node7" class="node"><title>BathsController</title>
<path fill="none" stroke="black" d="M220,-128.5C220,-128.5 321,-128.5 321,-128.5 327,-128.5 333,-134.5 333,-140.5 333,-140.5 333,-359.5 333,-359.5 333,-365.5 327,-371.5 321,-371.5 321,-371.5 220,-371.5 220,-371.5 214,-371.5 208,-365.5 208,-359.5 208,-359.5 208,-140.5 208,-140.5 208,-134.5 214,-128.5 220,-128.5"/>
<text text-anchor="middle" x="270.5" y="-356.3" font-family="Times,serif" font-size="14.00">BathsController</text>
<polyline fill="none" stroke="black" points="208,-348.5 333,-348.5 "/>
<text text-anchor="start" x="216" y="-333.3" font-family="Times,serif" font-size="14.00">create</text>
<text text-anchor="start" x="216" y="-318.3" font-family="Times,serif" font-size="14.00">destroy</text>
<text text-anchor="start" x="216" y="-303.3" font-family="Times,serif" font-size="14.00">edit</text>
<text text-anchor="start" x="216" y="-288.3" font-family="Times,serif" font-size="14.00">index</text>
<text text-anchor="start" x="216" y="-273.3" font-family="Times,serif" font-size="14.00">new</text>
<text text-anchor="start" x="216" y="-258.3" font-family="Times,serif" font-size="14.00">requests</text>
<text text-anchor="start" x="216" y="-243.3" font-family="Times,serif" font-size="14.00">show</text>
<text text-anchor="start" x="216" y="-228.3" font-family="Times,serif" font-size="14.00">showsingle</text>
<text text-anchor="start" x="216" y="-213.3" font-family="Times,serif" font-size="14.00">update</text>
<polyline fill="none" stroke="black" points="208,-205.5 333,-205.5 "/>
<polyline fill="none" stroke="black" points="208,-181.5 333,-181.5 "/>
<text text-anchor="start" x="216" y="-166.3" font-family="Times,serif" font-size="14.00">_layout</text>
<text text-anchor="start" x="216" y="-151.3" font-family="Times,serif" font-size="14.00">bath_params</text>
<text text-anchor="start" x="216" y="-136.3" font-family="Times,serif" font-size="14.00">count_state_match?</text>
</g>
<!-- BathImagesController -->
<g id="node8" class="node"><title>BathImagesController</title>
<path fill="none" stroke="black" d="M428,-400.5C428,-400.5 541,-400.5 541,-400.5 547,-400.5 553,-406.5 553,-412.5 553,-412.5 553,-556.5 553,-556.5 553,-562.5 547,-568.5 541,-568.5 541,-568.5 428,-568.5 428,-568.5 422,-568.5 416,-562.5 416,-556.5 416,-556.5 416,-412.5 416,-412.5 416,-406.5 422,-400.5 428,-400.5"/>
<text text-anchor="middle" x="484.5" y="-553.3" font-family="Times,serif" font-size="14.00">BathImagesController</text>
<polyline fill="none" stroke="black" points="416,-545.5 553,-545.5 "/>
<text text-anchor="start" x="424" y="-530.3" font-family="Times,serif" font-size="14.00">create</text>
<text text-anchor="start" x="424" y="-515.3" font-family="Times,serif" font-size="14.00">destroy</text>
<text text-anchor="start" x="424" y="-500.3" font-family="Times,serif" font-size="14.00">new</text>
<text text-anchor="start" x="424" y="-485.3" font-family="Times,serif" font-size="14.00">show</text>
<polyline fill="none" stroke="black" points="416,-477.5 553,-477.5 "/>
<polyline fill="none" stroke="black" points="416,-453.5 553,-453.5 "/>
<text text-anchor="start" x="424" y="-438.3" font-family="Times,serif" font-size="14.00">_layout</text>
<text text-anchor="start" x="424" y="-423.3" font-family="Times,serif" font-size="14.00">bath_image_params</text>
<text text-anchor="start" x="424" y="-408.3" font-family="Times,serif" font-size="14.00">current_bath</text>
</g>
<!-- ReviewsController -->
<g id="node9" class="node"><title>ReviewsController</title>
<path fill="none" stroke="black" d="M380,-160.5C380,-160.5 475,-160.5 475,-160.5 481,-160.5 487,-166.5 487,-172.5 487,-172.5 487,-361.5 487,-361.5 487,-367.5 481,-373.5 475,-373.5 475,-373.5 380,-373.5 380,-373.5 374,-373.5 368,-367.5 368,-361.5 368,-361.5 368,-172.5 368,-172.5 368,-166.5 374,-160.5 380,-160.5"/>
<text text-anchor="middle" x="427.5" y="-358.3" font-family="Times,serif" font-size="14.00">ReviewsController</text>
<polyline fill="none" stroke="black" points="368,-350.5 487,-350.5 "/>
<text text-anchor="start" x="376" y="-335.3" font-family="Times,serif" font-size="14.00">create</text>
<text text-anchor="start" x="376" y="-320.3" font-family="Times,serif" font-size="14.00">destroy</text>
<text text-anchor="start" x="376" y="-305.3" font-family="Times,serif" font-size="14.00">edit</text>
<text text-anchor="start" x="376" y="-290.3" font-family="Times,serif" font-size="14.00">new</text>
<text text-anchor="start" x="376" y="-275.3" font-family="Times,serif" font-size="14.00">reported</text>
<text text-anchor="start" x="376" y="-260.3" font-family="Times,serif" font-size="14.00">show</text>
<text text-anchor="start" x="376" y="-245.3" font-family="Times,serif" font-size="14.00">update</text>
<polyline fill="none" stroke="black" points="368,-237.5 487,-237.5 "/>
<polyline fill="none" stroke="black" points="368,-213.5 487,-213.5 "/>
<text text-anchor="start" x="376" y="-198.3" font-family="Times,serif" font-size="14.00">_layout</text>
<text text-anchor="start" x="376" y="-183.3" font-family="Times,serif" font-size="14.00">current_bath</text>
<text text-anchor="start" x="376" y="-168.3" font-family="Times,serif" font-size="14.00">review_params</text>
</g>
<!-- ApplicationController -->
<g id="node10" class="node"><title>ApplicationController</title>
<path fill="none" stroke="black" d="M204,-400.5C204,-400.5 374,-400.5 374,-400.5 380,-400.5 386,-406.5 386,-412.5 386,-412.5 386,-496.5 386,-496.5 386,-502.5 380,-508.5 374,-508.5 374,-508.5 204,-508.5 204,-508.5 198,-508.5 192,-502.5 192,-496.5 192,-496.5 192,-412.5 192,-412.5 192,-406.5 198,-400.5 204,-400.5"/>
<text text-anchor="middle" x="289" y="-493.3" font-family="Times,serif" font-size="14.00">ApplicationController</text>
<polyline fill="none" stroke="black" points="192,-485.5 386,-485.5 "/>
<polyline fill="none" stroke="black" points="192,-461.5 386,-461.5 "/>
<text text-anchor="start" x="200" y="-446.3" font-family="Times,serif" font-size="14.00">configure_permitted_parameters</text>
<polyline fill="none" stroke="black" points="192,-438.5 386,-438.5 "/>
<text text-anchor="start" x="200" y="-423.3" font-family="Times,serif" font-size="14.00">_layout</text>
<text text-anchor="start" x="200" y="-408.3" font-family="Times,serif" font-size="14.00">after_sign_out_path_for</text>
</g>
<!-- MainController -->
<g id="node11" class="node"><title>MainController</title>
<path fill="none" stroke="black" d="M92,-176.5C92,-176.5 169,-176.5 169,-176.5 175,-176.5 181,-182.5 181,-188.5 181,-188.5 181,-347.5 181,-347.5 181,-353.5 175,-359.5 169,-359.5 169,-359.5 92,-359.5 92,-359.5 86,-359.5 80,-353.5 80,-347.5 80,-347.5 80,-188.5 80,-188.5 80,-182.5 86,-176.5 92,-176.5"/>
<text text-anchor="middle" x="130.5" y="-344.3" font-family="Times,serif" font-size="14.00">MainController</text>
<polyline fill="none" stroke="black" points="80,-336.5 181,-336.5 "/>
<text text-anchor="start" x="88" y="-321.3" font-family="Times,serif" font-size="14.00">destroy</text>
<text text-anchor="start" x="88" y="-306.3" font-family="Times,serif" font-size="14.00">directions</text>
<text text-anchor="start" x="88" y="-291.3" font-family="Times,serif" font-size="14.00">index</text>
<text text-anchor="start" x="88" y="-276.3" font-family="Times,serif" font-size="14.00">nearme</text>
<text text-anchor="start" x="88" y="-261.3" font-family="Times,serif" font-size="14.00">show</text>
<polyline fill="none" stroke="black" points="80,-253.5 181,-253.5 "/>
<polyline fill="none" stroke="black" points="80,-229.5 181,-229.5 "/>
<text text-anchor="start" x="88" y="-214.3" font-family="Times,serif" font-size="14.00">_layout</text>
<text text-anchor="start" x="88" y="-199.3" font-family="Times,serif" font-size="14.00">ip_time</text>
<text text-anchor="start" x="88" y="-184.3" font-family="Times,serif" font-size="14.00">user_params</text>
</g>
<!-- OmniauthCallbacksController -->
<g id="node12" class="node"><title>OmniauthCallbacksController</title>
<path fill="none" stroke="black" d="M524,-160.5C524,-160.5 680,-160.5 680,-160.5 686,-160.5 692,-166.5 692,-172.5 692,-172.5 692,-256.5 692,-256.5 692,-262.5 686,-268.5 680,-268.5 680,-268.5 524,-268.5 524,-268.5 518,-268.5 512,-262.5 512,-256.5 512,-256.5 512,-172.5 512,-172.5 512,-166.5 518,-160.5 524,-160.5"/>
<text text-anchor="middle" x="602" y="-253.3" font-family="Times,serif" font-size="14.00">OmniauthCallbacksController</text>
<polyline fill="none" stroke="black" points="512,-245.5 692,-245.5 "/>
<text text-anchor="start" x="520" y="-230.3" font-family="Times,serif" font-size="14.00">all</text>
<text text-anchor="start" x="520" y="-215.3" font-family="Times,serif" font-size="14.00">facebook</text>
<polyline fill="none" stroke="black" points="512,-207.5 692,-207.5 "/>
<polyline fill="none" stroke="black" points="512,-183.5 692,-183.5 "/>
<text text-anchor="start" x="520" y="-168.3" font-family="Times,serif" font-size="14.00">_layout</text>
</g>
<!-- MapController -->
<g id="node13" class="node"><title>MapController</title>
<path fill="none" stroke="black" d="M12,-16.5C12,-16.5 161,-16.5 161,-16.5 167,-16.5 173,-22.5 173,-28.5 173,-28.5 173,-127.5 173,-127.5 173,-133.5 167,-139.5 161,-139.5 161,-139.5 12,-139.5 12,-139.5 6,-139.5 0,-133.5 0,-127.5 0,-127.5 0,-28.5 0,-28.5 0,-22.5 6,-16.5 12,-16.5"/>
<text text-anchor="middle" x="86.5" y="-124.3" font-family="Times,serif" font-size="14.00">MapController</text>
<polyline fill="none" stroke="black" points="0,-116.5 173,-116.5 "/>
<text text-anchor="start" x="8" y="-101.3" font-family="Times,serif" font-size="14.00">index</text>
<polyline fill="none" stroke="black" points="0,-93.5 173,-93.5 "/>
<polyline fill="none" stroke="black" points="0,-69.5 173,-69.5 "/>
<text text-anchor="start" x="8" y="-54.3" font-family="Times,serif" font-size="14.00">_layout</text>
<text text-anchor="start" x="8" y="-39.3" font-family="Times,serif" font-size="14.00">colorfind</text>
<text text-anchor="start" x="8" y="-24.3" font-family="Times,serif" font-size="14.00">gmaps4rails_marker_picture</text>
</g>
</g>
</svg>
