<?xml version="1.0" encoding="UTF-8" standalone="no"?>
<!DOCTYPE svg PUBLIC "-//W3C//DTD SVG 1.1//EN"
 "http://www.w3.org/Graphics/SVG/1.1/DTD/svg11.dtd">
<!-- Generated by graphviz version 2.36.0 (20140111.2315)
 -->
<!-- Title: models_diagram Pages: 1 -->
<svg width="789pt" height="302pt"
 viewBox="0.00 0.00 789.00 302.00" xmlns="http://www.w3.org/2000/svg" xmlns:xlink="http://www.w3.org/1999/xlink">
<g id="graph0" class="graph" transform="scale(1 1) rotate(0) translate(4 298)">
<title>models_diagram</title>
<polygon fill="none" stroke="none" points="-4,4 -4,-298 785,-298 785,4 -4,4"/>
<!-- _diagram_info -->
<g id="node1" class="node"><title>_diagram_info</title>
<text text-anchor="start" x="8" y="-279.6" font-family="Times,serif" font-size="13.00">Models diagram</text>
<text text-anchor="start" x="8" y="-265.6" font-family="Times,serif" font-size="13.00">Date: Aug 01 2016 &#45; 02:36</text>
<text text-anchor="start" x="8" y="-251.6" font-family="Times,serif" font-size="13.00">Migration version: 20160730052206</text>
<text text-anchor="start" x="8" y="-237.6" font-family="Times,serif" font-size="13.00">Generated by RailRoady 1.5.1</text>
<text text-anchor="start" x="8" y="-223.6" font-family="Times,serif" font-size="13.00">http://railroady.prestonlee.com</text>
</g>
<!-- Rate -->
<g id="node2" class="node"><title>Rate</title>
<ellipse fill="none" stroke="black" cx="259" cy="-255" rx="27" ry="18"/>
<text text-anchor="middle" x="259" y="-251.3" font-family="Times,serif" font-size="14.00">Rate</text>
</g>
<!-- Flag -->
<g id="node3" class="node"><title>Flag</title>
<ellipse fill="none" stroke="black" cx="321" cy="-18" rx="27" ry="18"/>
<text text-anchor="middle" x="321" y="-14.3" font-family="Times,serif" font-size="14.00">Flag</text>
</g>
<!-- RatingCache -->
<g id="node4" class="node"><title>RatingCache</title>
<ellipse fill="none" stroke="black" cx="432" cy="-255" rx="55.3436" ry="18"/>
<text text-anchor="middle" x="432" y="-251.3" font-family="Times,serif" font-size="14.00">RatingCache</text>
</g>
<!-- AverageCache -->
<g id="node5" class="node"><title>AverageCache</title>
<ellipse fill="none" stroke="black" cx="568" cy="-255" rx="62.0922" ry="18"/>
<text text-anchor="middle" x="568" y="-251.3" font-family="Times,serif" font-size="14.00">AverageCache</text>
</g>
<!-- User -->
<g id="node6" class="node"><title>User</title>
<ellipse fill="none" stroke="black" cx="331" cy="-255" rx="26.949" ry="18"/>
<text text-anchor="middle" x="331" y="-251.3" font-family="Times,serif" font-size="14.00">User</text>
</g>
<!-- User&#45;&gt;Flag -->
<g id="edge3" class="edge"><title>User&#45;&gt;Flag</title>
<path fill="none" stroke="#86a219" d="M313.678,-232.127C293.322,-204.892 260.71,-156.074 248,-108 243.91,-92.5315 240.734,-86.2549 248,-72 256.8,-54.737 274.144,-41.7812 289.718,-33.0012"/>
<ellipse fill="none" stroke="#86a219" cx="316.152" cy="-235.386" rx="4.00002" ry="4.00002"/>
<polygon fill="#86a219" stroke="#86a219" points="289.761,-32.9788 300.705,-32.2935 294.183,-30.646 298.606,-28.3133 298.606,-28.3133 298.606,-28.3133 294.183,-30.646 296.506,-24.333 289.761,-32.9788 289.761,-32.9788"/>
</g>
<!-- BathImage -->
<g id="node8" class="node"><title>BathImage</title>
<ellipse fill="none" stroke="black" cx="307" cy="-90" rx="50.0684" ry="18"/>
<text text-anchor="middle" x="307" y="-86.3" font-family="Times,serif" font-size="14.00">BathImage</text>
</g>
<!-- User&#45;&gt;BathImage -->
<g id="edge4" class="edge"><title>User&#45;&gt;BathImage</title>
<path fill="none" stroke="#18bdfd" d="M327.311,-228.945C322.914,-199.085 315.593,-149.36 311.045,-118.473"/>
<ellipse fill="none" stroke="#18bdfd" cx="327.894" cy="-232.907" rx="4.00001" ry="4.00001"/>
<polygon fill="#18bdfd" stroke="#18bdfd" points="311.018,-118.29 314.013,-107.741 310.29,-113.343 309.561,-108.397 309.561,-108.397 309.561,-108.397 310.29,-113.343 305.109,-109.052 311.018,-118.29 311.018,-118.29"/>
</g>
<!-- Review -->
<g id="node9" class="node"><title>Review</title>
<ellipse fill="none" stroke="black" cx="413" cy="-90" rx="37.5442" ry="18"/>
<text text-anchor="middle" x="413" y="-86.3" font-family="Times,serif" font-size="14.00">Review</text>
</g>
<!-- User&#45;&gt;Review -->
<g id="edge2" class="edge"><title>User&#45;&gt;Review</title>
<path fill="none" stroke="#21dfda" d="M350.843,-233.082C367.103,-215.527 388.321,-191.525 394,-180 403.573,-160.57 408.342,-136.427 410.707,-118.19"/>
<ellipse fill="none" stroke="#21dfda" cx="347.844" cy="-236.298" rx="4.00002" ry="4.00002"/>
<polygon fill="#21dfda" stroke="#21dfda" points="410.711,-118.152 416.311,-108.724 411.275,-113.184 411.839,-108.216 411.839,-108.216 411.839,-108.216 411.275,-113.184 407.368,-107.708 410.711,-118.152 410.711,-118.152"/>
</g>
<!-- Bath -->
<g id="node10" class="node"><title>Bath</title>
<ellipse fill="none" stroke="black" cx="358" cy="-162" rx="26.949" ry="18"/>
<text text-anchor="middle" x="358" y="-158.3" font-family="Times,serif" font-size="14.00">Bath</text>
</g>
<!-- User&#45;&gt;Bath -->
<g id="edge1" class="edge"><title>User&#45;&gt;Bath</title>
<path fill="none" stroke="#4abdea" d="M338.386,-229.107C342.024,-216.844 346.414,-202.048 350.118,-189.566"/>
<ellipse fill="none" stroke="#4abdea" cx="337.216" cy="-233.049" rx="4.00001" ry="4.00001"/>
<polygon fill="#4abdea" stroke="#4abdea" points="350.191,-189.319 357.35,-181.012 351.613,-184.526 353.036,-179.732 353.036,-179.732 353.036,-179.732 351.613,-184.526 348.721,-178.452 350.191,-189.319 350.191,-189.319"/>
</g>
<!-- OverallAverage -->
<g id="node7" class="node"><title>OverallAverage</title>
<ellipse fill="none" stroke="black" cx="715" cy="-255" rx="66.4165" ry="18"/>
<text text-anchor="middle" x="715" y="-251.3" font-family="Times,serif" font-size="14.00">OverallAverage</text>
</g>
<!-- Review&#45;&gt;Flag -->
<g id="edge5" class="edge"><title>Review&#45;&gt;Flag</title>
<path fill="none" stroke="#63c0df" d="M387.477,-69.5803C374.586,-59.7723 359.001,-47.9135 346.161,-38.1444"/>
<ellipse fill="none" stroke="#63c0df" cx="390.754" cy="-72.0738" rx="4.00002" ry="4.00002"/>
<polygon fill="#63c0df" stroke="#63c0df" points="346.135,-38.1242 340.901,-28.4877 342.156,-35.0966 338.176,-32.069 338.176,-32.069 338.176,-32.069 342.156,-35.0966 335.451,-35.6502 346.135,-38.1242 346.135,-38.1242"/>
</g>
<!-- Bath&#45;&gt;BathImage -->
<g id="edge7" class="edge"><title>Bath&#45;&gt;BathImage</title>
<path fill="none" stroke="#598e96" d="M341.866,-138.855C336.633,-131.673 330.79,-123.652 325.405,-116.261"/>
<ellipse fill="none" stroke="#598e96" cx="344.326" cy="-142.232" rx="4.00002" ry="4.00002"/>
<polygon fill="#598e96" stroke="#598e96" points="325.246,-116.044 322.995,-105.312 322.302,-112.003 319.358,-107.962 319.358,-107.962 319.358,-107.962 322.302,-112.003 315.721,-110.612 325.246,-116.044 325.246,-116.044"/>
</g>
<!-- Bath&#45;&gt;Review -->
<g id="edge6" class="edge"><title>Bath&#45;&gt;Review</title>
<path fill="none" stroke="#0827c2" d="M375.053,-139.296C381.047,-131.667 387.819,-123.049 393.966,-115.226"/>
<ellipse fill="none" stroke="#0827c2" cx="372.405" cy="-142.666" rx="4.00002" ry="4.00002"/>
<polygon fill="#0827c2" stroke="#0827c2" points="394.145,-114.997 403.862,-109.914 397.235,-111.065 400.324,-107.134 400.324,-107.134 400.324,-107.134 397.235,-111.065 396.785,-104.353 394.145,-114.997 394.145,-114.997"/>
</g>
</g>
</svg>
