<?xml version="1.0" encoding="UTF-8" standalone="no"?>
<!DOCTYPE svg PUBLIC "-//W3C//DTD SVG 1.1//EN"
 "http://www.w3.org/Graphics/SVG/1.1/DTD/svg11.dtd">
<!-- Generated by graphviz version 2.36.0 (20140111.2315)
 -->
<!-- Title: models_diagram Pages: 1 -->
<svg width="555pt" height="1042pt"
 viewBox="0.00 0.00 555.00 1042.00" xmlns="http://www.w3.org/2000/svg" xmlns:xlink="http://www.w3.org/1999/xlink">
<g id="graph0" class="graph" transform="scale(1 1) rotate(0) translate(4 1038)">
<title>models_diagram</title>
<polygon fill="none" stroke="none" points="-4,4 -4,-1038 551,-1038 551,4 -4,4"/>
<!-- _diagram_info -->
<g id="node1" class="node"><title>_diagram_info</title>
<text text-anchor="start" x="8" y="-862.6" font-family="Times,serif" font-size="13.00">Models diagram</text>
<text text-anchor="start" x="8" y="-848.6" font-family="Times,serif" font-size="13.00">Date: Aug 01 2016 &#45; 02:36</text>
<text text-anchor="start" x="8" y="-834.6" font-family="Times,serif" font-size="13.00">Migration version: 20160730052206</text>
<text text-anchor="start" x="8" y="-820.6" font-family="Times,serif" font-size="13.00">Generated by RailRoady 1.5.1</text>
<text text-anchor="start" x="8" y="-806.6" font-family="Times,serif" font-size="13.00">http://railroady.prestonlee.com</text>
</g>
<!-- Flag -->
<g id="node2" class="node"><title>Flag</title>
<path fill="none" stroke="black" d="M286.5,-1C286.5,-1 393.5,-1 393.5,-1 399.5,-1 405.5,-7 405.5,-13 405.5,-13 405.5,-125 405.5,-125 405.5,-131 399.5,-137 393.5,-137 393.5,-137 286.5,-137 286.5,-137 280.5,-137 274.5,-131 274.5,-125 274.5,-125 274.5,-13 274.5,-13 274.5,-7 280.5,-1 286.5,-1"/>
<text text-anchor="middle" x="340" y="-121.8" font-family="Times,serif" font-size="14.00">Flag</text>
<polyline fill="none" stroke="black" points="274.5,-114 405.5,-114 "/>
<text text-anchor="start" x="282.5" y="-98.8" font-family="Times,serif" font-size="14.00">id :INTEGER</text>
<text text-anchor="start" x="282.5" y="-83.8" font-family="Times,serif" font-size="14.00">review_id :integer</text>
<text text-anchor="start" x="282.5" y="-68.8" font-family="Times,serif" font-size="14.00">user_id :integer</text>
<text text-anchor="start" x="282.5" y="-53.8" font-family="Times,serif" font-size="14.00">reason :varchar</text>
<text text-anchor="start" x="282.5" y="-38.8" font-family="Times,serif" font-size="14.00">count :integer</text>
<text text-anchor="start" x="282.5" y="-23.8" font-family="Times,serif" font-size="14.00">created_at :datetime</text>
<text text-anchor="start" x="282.5" y="-8.8" font-family="Times,serif" font-size="14.00">updated_at :datetime</text>
</g>
<!-- User -->
<g id="node3" class="node"><title>User</title>
<path fill="none" stroke="black" d="M244,-642.5C244,-642.5 420,-642.5 420,-642.5 426,-642.5 432,-648.5 432,-654.5 432,-654.5 432,-1021.5 432,-1021.5 432,-1027.5 426,-1033.5 420,-1033.5 420,-1033.5 244,-1033.5 244,-1033.5 238,-1033.5 232,-1027.5 232,-1021.5 232,-1021.5 232,-654.5 232,-654.5 232,-648.5 238,-642.5 244,-642.5"/>
<text text-anchor="middle" x="332" y="-1018.3" font-family="Times,serif" font-size="14.00">User</text>
<polyline fill="none" stroke="black" points="232,-1010.5 432,-1010.5 "/>
<text text-anchor="start" x="240" y="-995.3" font-family="Times,serif" font-size="14.00">id :INTEGER</text>
<text text-anchor="start" x="240" y="-980.3" font-family="Times,serif" font-size="14.00">name :varchar</text>
<text text-anchor="start" x="240" y="-965.3" font-family="Times,serif" font-size="14.00">email :varchar</text>
<text text-anchor="start" x="240" y="-950.3" font-family="Times,serif" font-size="14.00">encrypted_password :varchar</text>
<text text-anchor="start" x="240" y="-935.3" font-family="Times,serif" font-size="14.00">reset_password_token :varchar</text>
<text text-anchor="start" x="240" y="-920.3" font-family="Times,serif" font-size="14.00">reset_password_sent_at :datetime</text>
<text text-anchor="start" x="240" y="-905.3" font-family="Times,serif" font-size="14.00">remember_created_at :datetime</text>
<text text-anchor="start" x="240" y="-890.3" font-family="Times,serif" font-size="14.00">sign_in_count :integer</text>
<text text-anchor="start" x="240" y="-875.3" font-family="Times,serif" font-size="14.00">current_sign_in_at :datetime</text>
<text text-anchor="start" x="240" y="-860.3" font-family="Times,serif" font-size="14.00">last_sign_in_at :datetime</text>
<text text-anchor="start" x="240" y="-845.3" font-family="Times,serif" font-size="14.00">current_sign_in_ip :varchar</text>
<text text-anchor="start" x="240" y="-830.3" font-family="Times,serif" font-size="14.00">last_sign_in_ip :varchar</text>
<text text-anchor="start" x="240" y="-815.3" font-family="Times,serif" font-size="14.00">created_at :datetime</text>
<text text-anchor="start" x="240" y="-800.3" font-family="Times,serif" font-size="14.00">updated_at :datetime</text>
<text text-anchor="start" x="240" y="-785.3" font-family="Times,serif" font-size="14.00">role :varchar</text>
<text text-anchor="start" x="240" y="-770.3" font-family="Times,serif" font-size="14.00">latitude :float</text>
<text text-anchor="start" x="240" y="-755.3" font-family="Times,serif" font-size="14.00">longitude :float</text>
<text text-anchor="start" x="240" y="-740.3" font-family="Times,serif" font-size="14.00">ip_address :varchar</text>
<text text-anchor="start" x="240" y="-725.3" font-family="Times,serif" font-size="14.00">image_file_name :varchar</text>
<text text-anchor="start" x="240" y="-710.3" font-family="Times,serif" font-size="14.00">image_content_type :varchar</text>
<text text-anchor="start" x="240" y="-695.3" font-family="Times,serif" font-size="14.00">image_file_size :integer</text>
<text text-anchor="start" x="240" y="-680.3" font-family="Times,serif" font-size="14.00">image_updated_at :datetime</text>
<text text-anchor="start" x="240" y="-665.3" font-family="Times,serif" font-size="14.00">provider :varchar</text>
<text text-anchor="start" x="240" y="-650.3" font-family="Times,serif" font-size="14.00">uid :varchar</text>
</g>
<!-- User&#45;&gt;Flag -->
<g id="edge3" class="edge"><title>User&#45;&gt;Flag</title>
<path fill="none" stroke="#469ab5" d="M236.922,-634.618C187.325,-498.939 149.617,-319.215 217,-174 227.807,-150.71 246.683,-130.749 266.45,-114.724"/>
<ellipse fill="none" stroke="#469ab5" cx="238.361" cy="-638.513" rx="4.00001" ry="4.00001"/>
<polygon fill="#469ab5" stroke="#469ab5" points="266.471,-114.708 277.122,-112.099 270.412,-111.63 274.353,-108.552 274.353,-108.552 274.353,-108.552 270.412,-111.63 271.583,-105.006 266.471,-114.708 266.471,-114.708"/>
</g>
<!-- BathImage -->
<g id="node4" class="node"><title>BathImage</title>
<path fill="none" stroke="black" d="M238,-175C238,-175 386,-175 386,-175 392,-175 398,-181 398,-187 398,-187 398,-329 398,-329 398,-335 392,-341 386,-341 386,-341 238,-341 238,-341 232,-341 226,-335 226,-329 226,-329 226,-187 226,-187 226,-181 232,-175 238,-175"/>
<text text-anchor="middle" x="312" y="-325.8" font-family="Times,serif" font-size="14.00">BathImage</text>
<polyline fill="none" stroke="black" points="226,-318 398,-318 "/>
<text text-anchor="start" x="234" y="-302.8" font-family="Times,serif" font-size="14.00">id :INTEGER</text>
<text text-anchor="start" x="234" y="-287.8" font-family="Times,serif" font-size="14.00">bath_id :integer</text>
<text text-anchor="start" x="234" y="-272.8" font-family="Times,serif" font-size="14.00">user_id :integer</text>
<text text-anchor="start" x="234" y="-257.8" font-family="Times,serif" font-size="14.00">created_at :datetime</text>
<text text-anchor="start" x="234" y="-242.8" font-family="Times,serif" font-size="14.00">updated_at :datetime</text>
<text text-anchor="start" x="234" y="-227.8" font-family="Times,serif" font-size="14.00">photo_file_name :varchar</text>
<text text-anchor="start" x="234" y="-212.8" font-family="Times,serif" font-size="14.00">photo_content_type :varchar</text>
<text text-anchor="start" x="234" y="-197.8" font-family="Times,serif" font-size="14.00">photo_file_size :integer</text>
<text text-anchor="start" x="234" y="-182.8" font-family="Times,serif" font-size="14.00">photo_updated_at :datetime</text>
</g>
<!-- User&#45;&gt;BathImage -->
<g id="edge4" class="edge"><title>User&#45;&gt;BathImage</title>
<path fill="none" stroke="#1400b7" d="M304.18,-634.385C303.338,-624.799 302.601,-615.301 302,-606 295.461,-504.878 297.754,-479.244 302,-378 302.363,-369.346 302.874,-360.348 303.475,-351.347"/>
<ellipse fill="none" stroke="#1400b7" cx="304.55" cy="-638.47" rx="4" ry="4"/>
<polygon fill="#1400b7" stroke="#1400b7" points="303.486,-351.179 308.677,-341.519 303.837,-346.191 304.188,-341.203 304.188,-341.203 304.188,-341.203 303.837,-346.191 299.699,-340.887 303.486,-351.179 303.486,-351.179"/>
</g>
<!-- Review -->
<g id="node5" class="node"><title>Review</title>
<path fill="none" stroke="black" d="M428.5,-182.5C428.5,-182.5 535.5,-182.5 535.5,-182.5 541.5,-182.5 547.5,-188.5 547.5,-194.5 547.5,-194.5 547.5,-321.5 547.5,-321.5 547.5,-327.5 541.5,-333.5 535.5,-333.5 535.5,-333.5 428.5,-333.5 428.5,-333.5 422.5,-333.5 416.5,-327.5 416.5,-321.5 416.5,-321.5 416.5,-194.5 416.5,-194.5 416.5,-188.5 422.5,-182.5 428.5,-182.5"/>
<text text-anchor="middle" x="482" y="-318.3" font-family="Times,serif" font-size="14.00">Review</text>
<polyline fill="none" stroke="black" points="416.5,-310.5 547.5,-310.5 "/>
<text text-anchor="start" x="424.5" y="-295.3" font-family="Times,serif" font-size="14.00">id :INTEGER</text>
<text text-anchor="start" x="424.5" y="-280.3" font-family="Times,serif" font-size="14.00">post :text</text>
<text text-anchor="start" x="424.5" y="-265.3" font-family="Times,serif" font-size="14.00">rating :integer</text>
<text text-anchor="start" x="424.5" y="-250.3" font-family="Times,serif" font-size="14.00">user_id :integer</text>
<text text-anchor="start" x="424.5" y="-235.3" font-family="Times,serif" font-size="14.00">bath_id :integer</text>
<text text-anchor="start" x="424.5" y="-220.3" font-family="Times,serif" font-size="14.00">created_at :datetime</text>
<text text-anchor="start" x="424.5" y="-205.3" font-family="Times,serif" font-size="14.00">updated_at :datetime</text>
<text text-anchor="start" x="424.5" y="-190.3" font-family="Times,serif" font-size="14.00">flag_count :integer</text>
</g>
<!-- User&#45;&gt;Review -->
<g id="edge2" class="edge"><title>User&#45;&gt;Review</title>
<path fill="none" stroke="#d191a3" d="M435.613,-673.74C446.113,-651.627 455.343,-628.715 462,-606 487.395,-519.347 489.935,-415.434 487.662,-344.047"/>
<ellipse fill="none" stroke="#d191a3" cx="433.746" cy="-677.606" rx="4.00002" ry="4.00002"/>
<polygon fill="#d191a3" stroke="#d191a3" points="487.652,-343.75 491.791,-333.596 487.473,-338.754 487.294,-333.757 487.294,-333.757 487.294,-333.757 487.473,-338.754 482.797,-333.918 487.652,-343.75 487.652,-343.75"/>
</g>
<!-- Bath -->
<g id="node6" class="node"><title>Bath</title>
<path fill="none" stroke="black" d="M322.5,-379C322.5,-379 441.5,-379 441.5,-379 447.5,-379 453.5,-385 453.5,-391 453.5,-391 453.5,-593 453.5,-593 453.5,-599 447.5,-605 441.5,-605 441.5,-605 322.5,-605 322.5,-605 316.5,-605 310.5,-599 310.5,-593 310.5,-593 310.5,-391 310.5,-391 310.5,-385 316.5,-379 322.5,-379"/>
<text text-anchor="middle" x="382" y="-589.8" font-family="Times,serif" font-size="14.00">Bath</text>
<polyline fill="none" stroke="black" points="310.5,-582 453.5,-582 "/>
<text text-anchor="start" x="318.5" y="-566.8" font-family="Times,serif" font-size="14.00">id :INTEGER</text>
<text text-anchor="start" x="318.5" y="-551.8" font-family="Times,serif" font-size="14.00">address :varchar</text>
<text text-anchor="start" x="318.5" y="-536.8" font-family="Times,serif" font-size="14.00">city :varchar</text>
<text text-anchor="start" x="318.5" y="-521.8" font-family="Times,serif" font-size="14.00">province :varchar</text>
<text text-anchor="start" x="318.5" y="-506.8" font-family="Times,serif" font-size="14.00">country :varchar</text>
<text text-anchor="start" x="318.5" y="-491.8" font-family="Times,serif" font-size="14.00">hours :time</text>
<text text-anchor="start" x="318.5" y="-476.8" font-family="Times,serif" font-size="14.00">admin_accept :boolean</text>
<text text-anchor="start" x="318.5" y="-461.8" font-family="Times,serif" font-size="14.00">user_id :integer</text>
<text text-anchor="start" x="318.5" y="-446.8" font-family="Times,serif" font-size="14.00">created_at :datetime</text>
<text text-anchor="start" x="318.5" y="-431.8" font-family="Times,serif" font-size="14.00">updated_at :datetime</text>
<text text-anchor="start" x="318.5" y="-416.8" font-family="Times,serif" font-size="14.00">latitude :float</text>
<text text-anchor="start" x="318.5" y="-401.8" font-family="Times,serif" font-size="14.00">longitude :float</text>
<text text-anchor="start" x="318.5" y="-386.8" font-family="Times,serif" font-size="14.00">apartment :varchar</text>
</g>
<!-- User&#45;&gt;Bath -->
<g id="edge1" class="edge"><title>User&#45;&gt;Bath</title>
<path fill="none" stroke="#50522c" d="M361.444,-634.423C362.365,-628.086 363.278,-621.806 364.177,-615.62"/>
<ellipse fill="none" stroke="#50522c" cx="360.863" cy="-638.424" rx="4.00001" ry="4.00001"/>
<polygon fill="#50522c" stroke="#50522c" points="364.238,-615.199 370.13,-605.95 364.958,-610.251 365.677,-605.303 365.677,-605.303 365.677,-605.303 364.958,-610.251 361.224,-604.655 364.238,-615.199 364.238,-615.199"/>
</g>
<!-- Review&#45;&gt;Flag -->
<g id="edge5" class="edge"><title>Review&#45;&gt;Flag</title>
<path fill="none" stroke="#5fda1d" d="M420.179,-175.588C412.466,-165.43 404.605,-155.078 396.97,-145.024"/>
<ellipse fill="none" stroke="#5fda1d" cx="422.847" cy="-179.101" rx="4.00002" ry="4.00002"/>
<polygon fill="#5fda1d" stroke="#5fda1d" points="396.95,-144.997 394.486,-134.312 393.926,-141.015 390.902,-137.033 390.902,-137.033 390.902,-137.033 393.926,-141.015 387.318,-139.755 396.95,-144.997 396.95,-144.997"/>
</g>
<!-- Bath&#45;&gt;BathImage -->
<g id="edge7" class="edge"><title>Bath&#45;&gt;BathImage</title>
<path fill="none" stroke="#2a2287" d="M345.788,-370.982C343.733,-364.171 341.683,-357.378 339.668,-350.698"/>
<ellipse fill="none" stroke="#2a2287" cx="346.972" cy="-374.908" rx="4.00001" ry="4.00001"/>
<polygon fill="#2a2287" stroke="#2a2287" points="339.631,-350.576 341.05,-339.702 338.186,-345.789 336.742,-341.002 336.742,-341.002 336.742,-341.002 338.186,-345.789 332.434,-342.302 339.631,-350.576 339.631,-350.576"/>
</g>
<!-- Bath&#45;&gt;Review -->
<g id="edge6" class="edge"><title>Bath&#45;&gt;Review</title>
<path fill="none" stroke="#99d897" d="M433.629,-371.221C437.712,-361.749 441.78,-352.31 445.725,-343.159"/>
<ellipse fill="none" stroke="#99d897" cx="431.972" cy="-375.064" rx="4.00002" ry="4.00002"/>
<polygon fill="#99d897" stroke="#99d897" points="445.828,-342.919 453.919,-335.517 447.807,-338.327 449.786,-333.736 449.786,-333.736 449.786,-333.736 447.807,-338.327 445.654,-331.955 445.828,-342.919 445.828,-342.919"/>
</g>
</g>
</svg>
